<svg id="Layer_1" data-name="Layer 1" xmlns="http://www.w3.org/2000/svg" viewBox="0 0 1600 900.5"><defs><style>.cls-1{fill:#e6e6e6;}.cls-2{font-size:200px;font-family:MyriadPro-Regular, Myriad Pro;}.cls-3{letter-spacing:-0.04em;}.cls-4{fill:#39b54a;}.cls-5{fill:#fbb03b;}.cls-6{fill:#f15a24;}.cls-7{fill:none;stroke:#000;stroke-miterlimit:10;stroke-width:5px;}</style></defs><title>16_9</title><rect class="cls-1" width="1600" height="900"/><text class="cls-2" transform="translate(811.42 449.48)">16:<tspan class="cls-3" x="246.59" y="0">9</tspan></text><path class="cls-4" d="M1590,10V890H10V10H1590m10-10H0V900H1600V0Z"/><path class="cls-5" d="M1490,65.89v767.5H110V65.89H1490m10-10H100v787.5H1500V55.89Z"/><path class="cls-6" d="M1390,123V778H210V123H1390m10-10H200V788H1400V113Z"/><path d="M1290,177.75v542.5H310V177.75h980m10-10H300v562.5H1300V167.75Z"/><line class="cls-7" y1="450" x2="1600" y2="450"/><line class="cls-7" x1="800.5" y1="0.5" x2="800.5" y2="900.5"/><line class="cls-7" x1="300" y1="730" x2="800" y2="451"/><line class="cls-7" x1="299.5" y1="167.5" x2="799.5" y2="450.5"/><line class="cls-7" x1="1299.5" y1="730.5" x2="799.5" y2="450.5"/></svg>